<mxfile host="app.diagrams.net" modified="2020-10-22T18:25:37.139Z" agent="5.0 (Windows NT 10.0; Win64; x64) AppleWebKit/537.36 (KHTML, like Gecko) Chrome/86.0.4240.75 Safari/537.36" etag="3jWn8oZt1BfR_eoTYe1j" version="13.8.1" type="github">
  <diagram name="Page-1" id="13e1069c-82ec-6db2-03f1-153e76fe0fe0">
    <mxGraphModel dx="1426" dy="737" grid="1" gridSize="10" guides="1" tooltips="1" connect="1" arrows="1" fold="1" page="1" pageScale="1" pageWidth="1100" pageHeight="850" background="#ffffff" math="0" shadow="0">
      <root>
        <mxCell id="0" />
        <mxCell id="1" parent="0" />
        <mxCell id="7baba1c4bc27f4b0-2" value="Gateway" style="shape=umlLifeline;perimeter=lifelinePerimeter;whiteSpace=wrap;html=1;container=1;collapsible=0;recursiveResize=0;outlineConnect=0;rounded=1;shadow=0;comic=0;labelBackgroundColor=none;strokeWidth=1;fontFamily=Verdana;fontSize=12;align=center;" parent="1" vertex="1">
          <mxGeometry x="240" y="80" width="100" height="580" as="geometry" />
        </mxCell>
        <mxCell id="CXt8hdQB0j-JE1RTXXkN-15" value="" style="html=1;points=[];perimeter=orthogonalPerimeter;" vertex="1" parent="7baba1c4bc27f4b0-2">
          <mxGeometry x="45" y="80" width="10" height="80" as="geometry" />
        </mxCell>
        <mxCell id="CXt8hdQB0j-JE1RTXXkN-29" value="" style="html=1;points=[];perimeter=orthogonalPerimeter;" vertex="1" parent="7baba1c4bc27f4b0-2">
          <mxGeometry x="45" y="200" width="10" height="80" as="geometry" />
        </mxCell>
        <mxCell id="7baba1c4bc27f4b0-3" value="JobManager" style="shape=umlLifeline;perimeter=lifelinePerimeter;whiteSpace=wrap;html=1;container=1;collapsible=0;recursiveResize=0;outlineConnect=0;rounded=1;shadow=0;comic=0;labelBackgroundColor=none;strokeWidth=1;fontFamily=Verdana;fontSize=12;align=center;" parent="1" vertex="1">
          <mxGeometry x="400" y="80" width="100" height="580" as="geometry" />
        </mxCell>
        <mxCell id="CXt8hdQB0j-JE1RTXXkN-22" value="" style="html=1;points=[];perimeter=orthogonalPerimeter;" vertex="1" parent="7baba1c4bc27f4b0-3">
          <mxGeometry x="45" y="100" width="10" height="40" as="geometry" />
        </mxCell>
        <mxCell id="CXt8hdQB0j-JE1RTXXkN-37" value="" style="html=1;points=[];perimeter=orthogonalPerimeter;" vertex="1" parent="7baba1c4bc27f4b0-3">
          <mxGeometry x="45" y="240" width="10" height="210" as="geometry" />
        </mxCell>
        <mxCell id="7baba1c4bc27f4b0-4" value="JobStorage" style="shape=umlLifeline;perimeter=lifelinePerimeter;whiteSpace=wrap;html=1;container=1;collapsible=0;recursiveResize=0;outlineConnect=0;rounded=1;shadow=0;comic=0;labelBackgroundColor=none;strokeWidth=1;fontFamily=Verdana;fontSize=12;align=center;" parent="1" vertex="1">
          <mxGeometry x="540" y="80" width="100" height="580" as="geometry" />
        </mxCell>
        <mxCell id="CXt8hdQB0j-JE1RTXXkN-35" value="" style="html=1;points=[];perimeter=orthogonalPerimeter;" vertex="1" parent="7baba1c4bc27f4b0-4">
          <mxGeometry x="45" y="200" width="10" height="80" as="geometry" />
        </mxCell>
        <mxCell id="CXt8hdQB0j-JE1RTXXkN-45" value="" style="html=1;points=[];perimeter=orthogonalPerimeter;" vertex="1" parent="7baba1c4bc27f4b0-4">
          <mxGeometry x="45" y="340" width="10" height="50" as="geometry" />
        </mxCell>
        <mxCell id="7baba1c4bc27f4b0-5" value="PdfImporter" style="shape=umlLifeline;perimeter=lifelinePerimeter;whiteSpace=wrap;html=1;container=1;collapsible=0;recursiveResize=0;outlineConnect=0;rounded=1;shadow=0;comic=0;labelBackgroundColor=none;strokeWidth=1;fontFamily=Verdana;fontSize=12;align=center;" parent="1" vertex="1">
          <mxGeometry x="680" y="80" width="100" height="580" as="geometry" />
        </mxCell>
        <mxCell id="CXt8hdQB0j-JE1RTXXkN-46" value="" style="html=1;points=[];perimeter=orthogonalPerimeter;" vertex="1" parent="7baba1c4bc27f4b0-5">
          <mxGeometry x="45" y="260" width="10" height="190" as="geometry" />
        </mxCell>
        <mxCell id="CXt8hdQB0j-JE1RTXXkN-49" value="If document type = PDF" style="shape=note;whiteSpace=wrap;html=1;backgroundOutline=1;darkOpacity=0.05;" vertex="1" parent="7baba1c4bc27f4b0-5">
          <mxGeometry x="10" y="130" width="80" height="100" as="geometry" />
        </mxCell>
        <mxCell id="7baba1c4bc27f4b0-8" value="Client" style="shape=umlLifeline;perimeter=lifelinePerimeter;whiteSpace=wrap;html=1;container=1;collapsible=0;recursiveResize=0;outlineConnect=0;rounded=1;shadow=0;comic=0;labelBackgroundColor=none;strokeWidth=1;fontFamily=Verdana;fontSize=12;align=center;" parent="1" vertex="1">
          <mxGeometry x="100" y="80" width="100" height="580" as="geometry" />
        </mxCell>
        <mxCell id="CXt8hdQB0j-JE1RTXXkN-9" value="" style="html=1;points=[];perimeter=orthogonalPerimeter;" vertex="1" parent="7baba1c4bc27f4b0-8">
          <mxGeometry x="45" y="80" width="10" height="80" as="geometry" />
        </mxCell>
        <mxCell id="CXt8hdQB0j-JE1RTXXkN-26" value="" style="html=1;points=[];perimeter=orthogonalPerimeter;" vertex="1" parent="7baba1c4bc27f4b0-8">
          <mxGeometry x="45" y="200" width="10" height="80" as="geometry" />
        </mxCell>
        <mxCell id="CXt8hdQB0j-JE1RTXXkN-16" value="CreateJob" style="html=1;verticalAlign=bottom;endArrow=block;entryX=0;entryY=0;" edge="1" target="CXt8hdQB0j-JE1RTXXkN-15" parent="1" source="7baba1c4bc27f4b0-8">
          <mxGeometry relative="1" as="geometry">
            <mxPoint x="215" y="160" as="sourcePoint" />
          </mxGeometry>
        </mxCell>
        <mxCell id="CXt8hdQB0j-JE1RTXXkN-17" value="JobId" style="html=1;verticalAlign=bottom;endArrow=open;dashed=1;endSize=8;exitX=0;exitY=0.95;" edge="1" source="CXt8hdQB0j-JE1RTXXkN-15" parent="1" target="7baba1c4bc27f4b0-8">
          <mxGeometry relative="1" as="geometry">
            <mxPoint x="215" y="236" as="targetPoint" />
          </mxGeometry>
        </mxCell>
        <mxCell id="CXt8hdQB0j-JE1RTXXkN-23" value="CreateJob" style="html=1;verticalAlign=bottom;endArrow=block;entryX=0;entryY=0;" edge="1" target="CXt8hdQB0j-JE1RTXXkN-22" parent="1" source="CXt8hdQB0j-JE1RTXXkN-15">
          <mxGeometry relative="1" as="geometry">
            <mxPoint x="375" y="160" as="sourcePoint" />
          </mxGeometry>
        </mxCell>
        <mxCell id="CXt8hdQB0j-JE1RTXXkN-24" value="JobId" style="html=1;verticalAlign=bottom;endArrow=open;dashed=1;endSize=8;exitX=0;exitY=0.95;" edge="1" source="CXt8hdQB0j-JE1RTXXkN-22" parent="1" target="7baba1c4bc27f4b0-2">
          <mxGeometry relative="1" as="geometry">
            <mxPoint x="375" y="236" as="targetPoint" />
          </mxGeometry>
        </mxCell>
        <mxCell id="CXt8hdQB0j-JE1RTXXkN-34" value="Upload FIle" style="html=1;verticalAlign=bottom;endArrow=block;" edge="1" parent="1">
          <mxGeometry width="80" relative="1" as="geometry">
            <mxPoint x="155" y="285" as="sourcePoint" />
            <mxPoint x="285" y="285" as="targetPoint" />
          </mxGeometry>
        </mxCell>
        <mxCell id="CXt8hdQB0j-JE1RTXXkN-36" value="Save File" style="html=1;verticalAlign=bottom;endArrow=block;" edge="1" parent="1">
          <mxGeometry width="80" relative="1" as="geometry">
            <mxPoint x="295" y="305" as="sourcePoint" />
            <mxPoint x="585" y="305" as="targetPoint" />
          </mxGeometry>
        </mxCell>
        <mxCell id="CXt8hdQB0j-JE1RTXXkN-39" value="FileUploadedIntegrationEvent" style="html=1;verticalAlign=bottom;endArrow=block;" edge="1" parent="1">
          <mxGeometry width="80" relative="1" as="geometry">
            <mxPoint x="295" y="337" as="sourcePoint" />
            <mxPoint x="445" y="337" as="targetPoint" />
          </mxGeometry>
        </mxCell>
        <mxCell id="CXt8hdQB0j-JE1RTXXkN-47" value="PdfFileUploadedIntegrationEvent" style="html=1;verticalAlign=bottom;endArrow=block;" edge="1" parent="1">
          <mxGeometry width="80" relative="1" as="geometry">
            <mxPoint x="455" y="385" as="sourcePoint" />
            <mxPoint x="725" y="385" as="targetPoint" />
          </mxGeometry>
        </mxCell>
        <mxCell id="CXt8hdQB0j-JE1RTXXkN-52" value="Save FTX File" style="html=1;verticalAlign=bottom;endArrow=block;" edge="1" parent="1">
          <mxGeometry width="80" relative="1" as="geometry">
            <mxPoint x="725" y="450" as="sourcePoint" />
            <mxPoint x="595" y="450" as="targetPoint" />
          </mxGeometry>
        </mxCell>
        <mxCell id="CXt8hdQB0j-JE1RTXXkN-55" value="Import Pdf File , Create FTX" style="html=1;verticalAlign=bottom;endArrow=block;" edge="1" parent="1" target="7baba1c4bc27f4b0-5">
          <mxGeometry x="-0.0028" width="80" relative="1" as="geometry">
            <mxPoint x="730" y="400" as="sourcePoint" />
            <mxPoint x="800" y="480" as="targetPoint" />
            <Array as="points">
              <mxPoint x="800" y="400" />
              <mxPoint x="800" y="440" />
            </Array>
            <mxPoint as="offset" />
          </mxGeometry>
        </mxCell>
        <mxCell id="CXt8hdQB0j-JE1RTXXkN-57" value="FileImportedIntegrationEvent" style="html=1;verticalAlign=bottom;endArrow=block;" edge="1" parent="1">
          <mxGeometry width="80" relative="1" as="geometry">
            <mxPoint x="725" y="522" as="sourcePoint" />
            <mxPoint x="449.5" y="522" as="targetPoint" />
          </mxGeometry>
        </mxCell>
      </root>
    </mxGraphModel>
  </diagram>
</mxfile>
